<mxfile host="app.diagrams.net" modified="2024-04-09T15:24:12.261Z" agent="Mozilla/5.0 (Windows NT 10.0; Win64; x64) AppleWebKit/537.36 (KHTML, like Gecko) Chrome/123.0.0.0 Safari/537.36" etag="TBndRU9rR--aYm3n_dYm" version="24.2.2" type="github">
  <diagram id="prtHgNgQTEPvFCAcTncT" name="Page-1">
    <mxGraphModel dx="1588" dy="916" grid="1" gridSize="10" guides="1" tooltips="1" connect="1" arrows="1" fold="1" page="1" pageScale="1" pageWidth="1200" pageHeight="1600" math="0" shadow="0">
      <root>
        <mxCell id="0" />
        <mxCell id="1" parent="0" />
        <mxCell id="50eX8-EQaEEPfpNOqsvf-22" value="" style="edgeStyle=orthogonalEdgeStyle;rounded=0;orthogonalLoop=1;jettySize=auto;html=1;entryX=0.5;entryY=0;entryDx=0;entryDy=0;" edge="1" parent="1" source="50eX8-EQaEEPfpNOqsvf-12" target="50eX8-EQaEEPfpNOqsvf-20">
          <mxGeometry relative="1" as="geometry" />
        </mxCell>
        <mxCell id="50eX8-EQaEEPfpNOqsvf-12" value="เคลื่อนที่ไปยังตำแหน่งที่ตั้งของวัสดุ" style="rounded=1;whiteSpace=wrap;html=1;" vertex="1" parent="1">
          <mxGeometry x="200" y="334" width="120" height="60" as="geometry" />
        </mxCell>
        <mxCell id="50eX8-EQaEEPfpNOqsvf-9" value="" style="rhombus;whiteSpace=wrap;html=1;" vertex="1" parent="1">
          <mxGeometry x="119" y="357" width="30" height="30" as="geometry" />
        </mxCell>
        <mxCell id="dNxyNK7c78bLwvsdeMH5-19" value="Warehose Process" style="swimlane;html=1;childLayout=stackLayout;resizeParent=1;resizeParentMax=0;horizontal=0;startSize=20;horizontalStack=0;" parent="1" vertex="1">
          <mxGeometry x="39" y="120" width="1100" height="490" as="geometry" />
        </mxCell>
        <mxCell id="dNxyNK7c78bLwvsdeMH5-20" value="Station" style="swimlane;html=1;startSize=20;horizontal=0;" parent="dNxyNK7c78bLwvsdeMH5-19" vertex="1">
          <mxGeometry x="20" width="1080" height="120" as="geometry" />
        </mxCell>
        <mxCell id="dNxyNK7c78bLwvsdeMH5-25" value="" style="edgeStyle=orthogonalEdgeStyle;rounded=0;orthogonalLoop=1;jettySize=auto;html=1;" parent="dNxyNK7c78bLwvsdeMH5-20" source="dNxyNK7c78bLwvsdeMH5-23" target="dNxyNK7c78bLwvsdeMH5-24" edge="1">
          <mxGeometry relative="1" as="geometry" />
        </mxCell>
        <mxCell id="dNxyNK7c78bLwvsdeMH5-23" value="" style="ellipse;whiteSpace=wrap;html=1;" parent="dNxyNK7c78bLwvsdeMH5-20" vertex="1">
          <mxGeometry x="40" y="40" width="40" height="40" as="geometry" />
        </mxCell>
        <mxCell id="dNxyNK7c78bLwvsdeMH5-24" value="สั่งงานหุ่นยนต์" style="rounded=1;whiteSpace=wrap;html=1;fontFamily=Helvetica;fontSize=12;fontColor=#000000;align=center;" parent="dNxyNK7c78bLwvsdeMH5-20" vertex="1">
          <mxGeometry x="120" y="30" width="80" height="60" as="geometry" />
        </mxCell>
        <mxCell id="50eX8-EQaEEPfpNOqsvf-4" value="" style="group" vertex="1" connectable="0" parent="dNxyNK7c78bLwvsdeMH5-20">
          <mxGeometry x="150" y="10" width="30" height="30" as="geometry" />
        </mxCell>
        <mxCell id="50eX8-EQaEEPfpNOqsvf-2" value="" style="ellipse;whiteSpace=wrap;html=1;" vertex="1" parent="50eX8-EQaEEPfpNOqsvf-4">
          <mxGeometry width="30" height="30" as="geometry" />
        </mxCell>
        <mxCell id="50eX8-EQaEEPfpNOqsvf-3" value="" style="ellipse;whiteSpace=wrap;html=1;" vertex="1" parent="50eX8-EQaEEPfpNOqsvf-4">
          <mxGeometry x="3" y="3" width="24" height="24" as="geometry" />
        </mxCell>
        <mxCell id="50eX8-EQaEEPfpNOqsvf-7" value="" style="sketch=0;pointerEvents=1;shadow=0;dashed=0;html=1;strokeColor=none;labelPosition=center;verticalLabelPosition=bottom;verticalAlign=top;align=center;fillColor=#505050;shape=mxgraph.mscae.enterprise.settings" vertex="1" parent="dNxyNK7c78bLwvsdeMH5-20">
          <mxGeometry x="122" y="32" width="10" height="10" as="geometry" />
        </mxCell>
        <mxCell id="50eX8-EQaEEPfpNOqsvf-85" value="" style="ellipse;whiteSpace=wrap;html=1;strokeWidth=3;" vertex="1" parent="dNxyNK7c78bLwvsdeMH5-20">
          <mxGeometry x="1034" y="42" width="20" height="20" as="geometry" />
        </mxCell>
        <mxCell id="50eX8-EQaEEPfpNOqsvf-88" value="" style="strokeWidth=2;html=1;shape=mxgraph.flowchart.database;whiteSpace=wrap;" vertex="1" parent="dNxyNK7c78bLwvsdeMH5-20">
          <mxGeometry x="771" y="16" width="39" height="42" as="geometry" />
        </mxCell>
        <mxCell id="50eX8-EQaEEPfpNOqsvf-89" value="Database" style="text;html=1;align=center;verticalAlign=middle;resizable=0;points=[];autosize=1;strokeColor=none;fillColor=none;fontSize=8;" vertex="1" parent="dNxyNK7c78bLwvsdeMH5-20">
          <mxGeometry x="760.5" y="60" width="60" height="20" as="geometry" />
        </mxCell>
        <mxCell id="dNxyNK7c78bLwvsdeMH5-21" value="Robot" style="swimlane;html=1;startSize=20;horizontal=0;fontSize=8;" parent="dNxyNK7c78bLwvsdeMH5-19" vertex="1">
          <mxGeometry x="20" y="120" width="1080" height="250" as="geometry" />
        </mxCell>
        <mxCell id="50eX8-EQaEEPfpNOqsvf-11" value="" style="shape=mxgraph.sysml.x;strokeWidth=2;" vertex="1" parent="dNxyNK7c78bLwvsdeMH5-21">
          <mxGeometry x="71" y="127" width="7" height="10" as="geometry" />
        </mxCell>
        <mxCell id="50eX8-EQaEEPfpNOqsvf-17" value="" style="group" vertex="1" connectable="0" parent="dNxyNK7c78bLwvsdeMH5-21">
          <mxGeometry x="186" y="75" width="30" height="30" as="geometry" />
        </mxCell>
        <mxCell id="50eX8-EQaEEPfpNOqsvf-18" value="" style="ellipse;whiteSpace=wrap;html=1;" vertex="1" parent="50eX8-EQaEEPfpNOqsvf-17">
          <mxGeometry width="30" height="30" as="geometry" />
        </mxCell>
        <mxCell id="50eX8-EQaEEPfpNOqsvf-19" value="" style="ellipse;whiteSpace=wrap;html=1;" vertex="1" parent="50eX8-EQaEEPfpNOqsvf-17">
          <mxGeometry x="3" y="3" width="24" height="24" as="geometry" />
        </mxCell>
        <mxCell id="50eX8-EQaEEPfpNOqsvf-20" value="" style="rhombus;whiteSpace=wrap;html=1;" vertex="1" parent="dNxyNK7c78bLwvsdeMH5-21">
          <mxGeometry x="186" y="185" width="30" height="30" as="geometry" />
        </mxCell>
        <mxCell id="50eX8-EQaEEPfpNOqsvf-51" value="" style="edgeStyle=none;orthogonalLoop=1;jettySize=auto;html=1;rounded=0;entryX=0;entryY=0.5;entryDx=0;entryDy=0;" edge="1" parent="dNxyNK7c78bLwvsdeMH5-21" target="50eX8-EQaEEPfpNOqsvf-38">
          <mxGeometry width="100" relative="1" as="geometry">
            <mxPoint x="291" y="36" as="sourcePoint" />
            <mxPoint x="391" y="36" as="targetPoint" />
            <Array as="points" />
          </mxGeometry>
        </mxCell>
        <mxCell id="50eX8-EQaEEPfpNOqsvf-61" value="No" style="text;html=1;align=center;verticalAlign=middle;resizable=0;points=[];autosize=1;strokeColor=none;fillColor=none;fontSize=8;" vertex="1" parent="dNxyNK7c78bLwvsdeMH5-21">
          <mxGeometry x="619" y="110" width="30" height="20" as="geometry" />
        </mxCell>
        <mxCell id="dNxyNK7c78bLwvsdeMH5-22" value="worker" style="swimlane;html=1;startSize=20;horizontal=0;" parent="dNxyNK7c78bLwvsdeMH5-19" vertex="1">
          <mxGeometry x="20" y="370" width="1080" height="120" as="geometry" />
        </mxCell>
        <mxCell id="50eX8-EQaEEPfpNOqsvf-91" value="Load Material" style="rounded=1;whiteSpace=wrap;html=1;fontSize=9;" vertex="1" parent="dNxyNK7c78bLwvsdeMH5-22">
          <mxGeometry x="232" y="30" width="72" height="60" as="geometry" />
        </mxCell>
        <mxCell id="50eX8-EQaEEPfpNOqsvf-94" value="Unload Material" style="rounded=1;whiteSpace=wrap;html=1;fontSize=9;" vertex="1" parent="dNxyNK7c78bLwvsdeMH5-22">
          <mxGeometry x="491" y="30" width="72" height="60" as="geometry" />
        </mxCell>
        <mxCell id="50eX8-EQaEEPfpNOqsvf-97" value="Mix Tank" style="rounded=1;whiteSpace=wrap;html=1;fontSize=9;" vertex="1" parent="dNxyNK7c78bLwvsdeMH5-22">
          <mxGeometry x="631" y="30" width="72" height="60" as="geometry" />
        </mxCell>
        <mxCell id="50eX8-EQaEEPfpNOqsvf-100" value="จัดการ Error" style="rounded=1;whiteSpace=wrap;html=1;fontSize=9;" vertex="1" parent="dNxyNK7c78bLwvsdeMH5-22">
          <mxGeometry x="915" y="30" width="72" height="60" as="geometry" />
        </mxCell>
        <mxCell id="50eX8-EQaEEPfpNOqsvf-103" value="" style="shape=actor;whiteSpace=wrap;html=1;strokeWidth=2;" vertex="1" parent="dNxyNK7c78bLwvsdeMH5-22">
          <mxGeometry x="237" y="33" width="10" height="10" as="geometry" />
        </mxCell>
        <mxCell id="50eX8-EQaEEPfpNOqsvf-104" value="" style="shape=actor;whiteSpace=wrap;html=1;strokeWidth=2;" vertex="1" parent="dNxyNK7c78bLwvsdeMH5-22">
          <mxGeometry x="496" y="33" width="10" height="10" as="geometry" />
        </mxCell>
        <mxCell id="50eX8-EQaEEPfpNOqsvf-105" value="" style="shape=actor;whiteSpace=wrap;html=1;strokeWidth=2;" vertex="1" parent="dNxyNK7c78bLwvsdeMH5-22">
          <mxGeometry x="920" y="34" width="10" height="10" as="geometry" />
        </mxCell>
        <mxCell id="50eX8-EQaEEPfpNOqsvf-107" value="" style="edgeStyle=orthogonalEdgeStyle;rounded=0;orthogonalLoop=1;jettySize=auto;html=1;exitX=0.5;exitY=1;exitDx=0;exitDy=0;entryX=0.001;entryY=0.569;entryDx=0;entryDy=0;entryPerimeter=0;" edge="1" parent="dNxyNK7c78bLwvsdeMH5-19" source="50eX8-EQaEEPfpNOqsvf-20" target="50eX8-EQaEEPfpNOqsvf-91">
          <mxGeometry relative="1" as="geometry">
            <mxPoint x="191" y="366.5" as="sourcePoint" />
            <mxPoint x="217" y="449.5" as="targetPoint" />
          </mxGeometry>
        </mxCell>
        <mxCell id="50eX8-EQaEEPfpNOqsvf-1" value="start" style="text;html=1;align=center;verticalAlign=middle;resizable=0;points=[];autosize=1;strokeColor=none;fillColor=none;" vertex="1" parent="1">
          <mxGeometry x="94" y="198" width="50" height="30" as="geometry" />
        </mxCell>
        <mxCell id="50eX8-EQaEEPfpNOqsvf-10" value="" style="edgeStyle=none;orthogonalLoop=1;jettySize=auto;html=1;rounded=0;exitX=0.516;exitY=1.001;exitDx=0;exitDy=0;entryX=0.5;entryY=0;entryDx=0;entryDy=0;exitPerimeter=0;" edge="1" parent="1" source="dNxyNK7c78bLwvsdeMH5-24" target="50eX8-EQaEEPfpNOqsvf-9">
          <mxGeometry width="100" relative="1" as="geometry">
            <mxPoint x="110" y="270" as="sourcePoint" />
            <mxPoint x="210" y="270" as="targetPoint" />
            <Array as="points">
              <mxPoint x="220" y="230" />
              <mxPoint x="134" y="230" />
            </Array>
          </mxGeometry>
        </mxCell>
        <mxCell id="50eX8-EQaEEPfpNOqsvf-13" value="" style="edgeStyle=none;orthogonalLoop=1;jettySize=auto;html=1;rounded=0;exitX=1;exitY=0.5;exitDx=0;exitDy=0;" edge="1" parent="1" source="50eX8-EQaEEPfpNOqsvf-9">
          <mxGeometry width="100" relative="1" as="geometry">
            <mxPoint x="100" y="372" as="sourcePoint" />
            <mxPoint x="200" y="372" as="targetPoint" />
            <Array as="points" />
          </mxGeometry>
        </mxCell>
        <mxCell id="50eX8-EQaEEPfpNOqsvf-15" value="" style="sketch=0;pointerEvents=1;shadow=0;dashed=0;html=1;strokeColor=none;labelPosition=center;verticalLabelPosition=bottom;verticalAlign=top;align=center;fillColor=#505050;shape=mxgraph.mscae.enterprise.settings" vertex="1" parent="1">
          <mxGeometry x="194" y="164" width="10" height="10" as="geometry" />
        </mxCell>
        <mxCell id="50eX8-EQaEEPfpNOqsvf-8" value="" style="sketch=0;pointerEvents=1;shadow=0;dashed=0;html=1;strokeColor=none;labelPosition=center;verticalLabelPosition=bottom;verticalAlign=top;align=center;fillColor=#505050;shape=mxgraph.mscae.enterprise.settings" vertex="1" parent="1">
          <mxGeometry x="203" y="335" width="10" height="10" as="geometry" />
        </mxCell>
        <mxCell id="50eX8-EQaEEPfpNOqsvf-16" value="" style="sketch=0;pointerEvents=1;shadow=0;dashed=0;html=1;strokeColor=none;labelPosition=center;verticalLabelPosition=bottom;verticalAlign=top;align=center;fillColor=#505050;shape=mxgraph.mscae.enterprise.settings" vertex="1" parent="1">
          <mxGeometry x="206" y="337" width="10" height="10" as="geometry" />
        </mxCell>
        <mxCell id="50eX8-EQaEEPfpNOqsvf-21" value="" style="shape=mxgraph.sysml.x;strokeWidth=2;" vertex="1" parent="1">
          <mxGeometry x="256" y="434" width="7" height="10" as="geometry" />
        </mxCell>
        <mxCell id="50eX8-EQaEEPfpNOqsvf-31" value="" style="edgeStyle=orthogonalEdgeStyle;rounded=0;orthogonalLoop=1;jettySize=auto;html=1;entryX=0;entryY=0.5;entryDx=0;entryDy=0;" edge="1" parent="1" source="50eX8-EQaEEPfpNOqsvf-23" target="50eX8-EQaEEPfpNOqsvf-29">
          <mxGeometry relative="1" as="geometry" />
        </mxCell>
        <mxCell id="50eX8-EQaEEPfpNOqsvf-23" value="Check Material Weight" style="rounded=1;whiteSpace=wrap;html=1;" vertex="1" parent="1">
          <mxGeometry x="360" y="335" width="90" height="60" as="geometry" />
        </mxCell>
        <mxCell id="50eX8-EQaEEPfpNOqsvf-24" value="" style="group" vertex="1" connectable="0" parent="1">
          <mxGeometry x="394" y="316" width="30" height="30" as="geometry" />
        </mxCell>
        <mxCell id="50eX8-EQaEEPfpNOqsvf-25" value="" style="ellipse;whiteSpace=wrap;html=1;" vertex="1" parent="50eX8-EQaEEPfpNOqsvf-24">
          <mxGeometry width="30" height="30" as="geometry" />
        </mxCell>
        <mxCell id="50eX8-EQaEEPfpNOqsvf-26" value="" style="ellipse;whiteSpace=wrap;html=1;" vertex="1" parent="50eX8-EQaEEPfpNOqsvf-24">
          <mxGeometry x="3" y="3" width="24" height="24" as="geometry" />
        </mxCell>
        <mxCell id="50eX8-EQaEEPfpNOqsvf-27" value="" style="sketch=0;pointerEvents=1;shadow=0;dashed=0;html=1;strokeColor=none;labelPosition=center;verticalLabelPosition=bottom;verticalAlign=top;align=center;fillColor=#505050;shape=mxgraph.mscae.enterprise.settings" vertex="1" parent="1">
          <mxGeometry x="363" y="336" width="10" height="10" as="geometry" />
        </mxCell>
        <mxCell id="50eX8-EQaEEPfpNOqsvf-28" value="" style="sketch=0;pointerEvents=1;shadow=0;dashed=0;html=1;strokeColor=none;labelPosition=center;verticalLabelPosition=bottom;verticalAlign=top;align=center;fillColor=#505050;shape=mxgraph.mscae.enterprise.settings" vertex="1" parent="1">
          <mxGeometry x="366" y="338" width="10" height="10" as="geometry" />
        </mxCell>
        <mxCell id="50eX8-EQaEEPfpNOqsvf-46" value="" style="edgeStyle=orthogonalEdgeStyle;rounded=0;orthogonalLoop=1;jettySize=auto;html=1;entryX=0;entryY=0.5;entryDx=0;entryDy=0;" edge="1" parent="1" source="50eX8-EQaEEPfpNOqsvf-29" target="50eX8-EQaEEPfpNOqsvf-40">
          <mxGeometry relative="1" as="geometry" />
        </mxCell>
        <mxCell id="50eX8-EQaEEPfpNOqsvf-29" value="" style="rhombus;whiteSpace=wrap;html=1;" vertex="1" parent="1">
          <mxGeometry x="478" y="350" width="30" height="30" as="geometry" />
        </mxCell>
        <mxCell id="50eX8-EQaEEPfpNOqsvf-30" value="" style="shape=mxgraph.sysml.x;strokeWidth=2;" vertex="1" parent="1">
          <mxGeometry x="489" y="359" width="7" height="10" as="geometry" />
        </mxCell>
        <mxCell id="50eX8-EQaEEPfpNOqsvf-32" value="" style="edgeStyle=none;orthogonalLoop=1;jettySize=auto;html=1;rounded=0;exitX=0.5;exitY=1;exitDx=0;exitDy=0;entryX=1;entryY=0.5;entryDx=0;entryDy=0;" edge="1" parent="1" source="50eX8-EQaEEPfpNOqsvf-29" target="50eX8-EQaEEPfpNOqsvf-20">
          <mxGeometry width="100" relative="1" as="geometry">
            <mxPoint x="360" y="440" as="sourcePoint" />
            <mxPoint x="460" y="440" as="targetPoint" />
            <Array as="points">
              <mxPoint x="493" y="440" />
            </Array>
          </mxGeometry>
        </mxCell>
        <mxCell id="50eX8-EQaEEPfpNOqsvf-37" value="" style="edgeStyle=orthogonalEdgeStyle;rounded=0;orthogonalLoop=1;jettySize=auto;html=1;endArrow=none;endFill=0;startArrow=classic;startFill=1;" edge="1" parent="1" source="50eX8-EQaEEPfpNOqsvf-33" target="50eX8-EQaEEPfpNOqsvf-18">
          <mxGeometry relative="1" as="geometry" />
        </mxCell>
        <mxCell id="50eX8-EQaEEPfpNOqsvf-33" value="" style="rhombus;whiteSpace=wrap;html=1;" vertex="1" parent="1">
          <mxGeometry x="320" y="261" width="30" height="30" as="geometry" />
        </mxCell>
        <mxCell id="50eX8-EQaEEPfpNOqsvf-34" value="" style="shape=mxgraph.sysml.x;strokeWidth=2;" vertex="1" parent="1">
          <mxGeometry x="331" y="270" width="7" height="10" as="geometry" />
        </mxCell>
        <mxCell id="50eX8-EQaEEPfpNOqsvf-38" value="" style="rhombus;whiteSpace=wrap;html=1;" vertex="1" parent="1">
          <mxGeometry x="571" y="260" width="30" height="30" as="geometry" />
        </mxCell>
        <mxCell id="50eX8-EQaEEPfpNOqsvf-39" value="" style="shape=mxgraph.sysml.x;strokeWidth=2;" vertex="1" parent="1">
          <mxGeometry x="582" y="269" width="7" height="10" as="geometry" />
        </mxCell>
        <mxCell id="50eX8-EQaEEPfpNOqsvf-40" value="ย้ายไป Mix tank" style="rounded=1;whiteSpace=wrap;html=1;" vertex="1" parent="1">
          <mxGeometry x="537" y="335" width="90" height="60" as="geometry" />
        </mxCell>
        <mxCell id="50eX8-EQaEEPfpNOqsvf-41" value="" style="group" vertex="1" connectable="0" parent="1">
          <mxGeometry x="571" y="316" width="30" height="30" as="geometry" />
        </mxCell>
        <mxCell id="50eX8-EQaEEPfpNOqsvf-42" value="" style="ellipse;whiteSpace=wrap;html=1;" vertex="1" parent="50eX8-EQaEEPfpNOqsvf-41">
          <mxGeometry width="30" height="30" as="geometry" />
        </mxCell>
        <mxCell id="50eX8-EQaEEPfpNOqsvf-43" value="" style="ellipse;whiteSpace=wrap;html=1;" vertex="1" parent="50eX8-EQaEEPfpNOqsvf-41">
          <mxGeometry x="3" y="3" width="24" height="24" as="geometry" />
        </mxCell>
        <mxCell id="50eX8-EQaEEPfpNOqsvf-44" value="" style="sketch=0;pointerEvents=1;shadow=0;dashed=0;html=1;strokeColor=none;labelPosition=center;verticalLabelPosition=bottom;verticalAlign=top;align=center;fillColor=#505050;shape=mxgraph.mscae.enterprise.settings" vertex="1" parent="1">
          <mxGeometry x="540" y="336" width="10" height="10" as="geometry" />
        </mxCell>
        <mxCell id="50eX8-EQaEEPfpNOqsvf-45" value="" style="sketch=0;pointerEvents=1;shadow=0;dashed=0;html=1;strokeColor=none;labelPosition=center;verticalLabelPosition=bottom;verticalAlign=top;align=center;fillColor=#505050;shape=mxgraph.mscae.enterprise.settings" vertex="1" parent="1">
          <mxGeometry x="543" y="338" width="10" height="10" as="geometry" />
        </mxCell>
        <mxCell id="50eX8-EQaEEPfpNOqsvf-48" value="" style="edgeStyle=orthogonalEdgeStyle;rounded=0;orthogonalLoop=1;jettySize=auto;html=1;" edge="1" parent="1">
          <mxGeometry relative="1" as="geometry">
            <mxPoint x="586" y="316" as="sourcePoint" />
            <mxPoint x="586" y="290" as="targetPoint" />
          </mxGeometry>
        </mxCell>
        <mxCell id="50eX8-EQaEEPfpNOqsvf-49" value="Yes" style="text;html=1;align=center;verticalAlign=middle;resizable=0;points=[];autosize=1;strokeColor=none;fillColor=none;fontSize=8;" vertex="1" parent="1">
          <mxGeometry x="497" y="348" width="40" height="20" as="geometry" />
        </mxCell>
        <mxCell id="50eX8-EQaEEPfpNOqsvf-50" value="No" style="text;html=1;align=center;verticalAlign=middle;resizable=0;points=[];autosize=1;strokeColor=none;fillColor=none;fontSize=8;" vertex="1" parent="1">
          <mxGeometry x="485" y="383" width="30" height="20" as="geometry" />
        </mxCell>
        <mxCell id="50eX8-EQaEEPfpNOqsvf-52" value="น้ำหนักถูกต้องไหม?" style="text;html=1;align=center;verticalAlign=middle;resizable=0;points=[];autosize=1;strokeColor=none;fillColor=none;fontSize=7;" vertex="1" parent="1">
          <mxGeometry x="450" y="332" width="80" height="20" as="geometry" />
        </mxCell>
        <mxCell id="50eX8-EQaEEPfpNOqsvf-53" value="" style="rhombus;whiteSpace=wrap;html=1;" vertex="1" parent="1">
          <mxGeometry x="656" y="351" width="30" height="30" as="geometry" />
        </mxCell>
        <mxCell id="50eX8-EQaEEPfpNOqsvf-54" value="" style="shape=mxgraph.sysml.x;strokeWidth=2;" vertex="1" parent="1">
          <mxGeometry x="667" y="360" width="7" height="10" as="geometry" />
        </mxCell>
        <mxCell id="50eX8-EQaEEPfpNOqsvf-55" value="" style="edgeStyle=none;orthogonalLoop=1;jettySize=auto;html=1;rounded=0;exitX=0;exitY=0.5;exitDx=0;exitDy=0;entryX=0.5;entryY=1;entryDx=0;entryDy=0;" edge="1" parent="1" source="50eX8-EQaEEPfpNOqsvf-53" target="50eX8-EQaEEPfpNOqsvf-9">
          <mxGeometry width="100" relative="1" as="geometry">
            <mxPoint x="590" y="400" as="sourcePoint" />
            <mxPoint x="130" y="470" as="targetPoint" />
            <Array as="points">
              <mxPoint x="640" y="366" />
              <mxPoint x="640" y="470" />
              <mxPoint x="134" y="470" />
            </Array>
          </mxGeometry>
        </mxCell>
        <mxCell id="50eX8-EQaEEPfpNOqsvf-56" value="Yes" style="text;html=1;align=center;verticalAlign=middle;resizable=0;points=[];autosize=1;strokeColor=none;fillColor=none;fontSize=8;" vertex="1" parent="1">
          <mxGeometry x="628" y="349" width="40" height="20" as="geometry" />
        </mxCell>
        <mxCell id="50eX8-EQaEEPfpNOqsvf-69" value="" style="edgeStyle=orthogonalEdgeStyle;rounded=0;orthogonalLoop=1;jettySize=auto;html=1;entryX=0;entryY=0.528;entryDx=0;entryDy=0;entryPerimeter=0;" edge="1" parent="1" source="50eX8-EQaEEPfpNOqsvf-57" target="50eX8-EQaEEPfpNOqsvf-63">
          <mxGeometry relative="1" as="geometry" />
        </mxCell>
        <mxCell id="50eX8-EQaEEPfpNOqsvf-57" value="" style="rhombus;whiteSpace=wrap;html=1;" vertex="1" parent="1">
          <mxGeometry x="713" y="350" width="30" height="30" as="geometry" />
        </mxCell>
        <mxCell id="50eX8-EQaEEPfpNOqsvf-59" value="" style="shape=image;html=1;verticalAlign=top;verticalLabelPosition=bottom;labelBackgroundColor=#ffffff;imageAspect=0;aspect=fixed;image=https://cdn4.iconfinder.com/data/icons/ionicons/512/icon-plus-128.png" vertex="1" parent="1">
          <mxGeometry x="719" y="355" width="18" height="18" as="geometry" />
        </mxCell>
        <mxCell id="50eX8-EQaEEPfpNOqsvf-62" value="Need material?" style="text;html=1;align=center;verticalAlign=middle;resizable=0;points=[];autosize=1;strokeColor=none;fillColor=none;fontSize=7;" vertex="1" parent="1">
          <mxGeometry x="635" y="330" width="70" height="20" as="geometry" />
        </mxCell>
        <mxCell id="50eX8-EQaEEPfpNOqsvf-63" value="เคลื่อนที่ไปยังตำแหน่งที่ตั้งต้นของระบบ" style="rounded=1;whiteSpace=wrap;html=1;fontSize=9;" vertex="1" parent="1">
          <mxGeometry x="770" y="333" width="90" height="60" as="geometry" />
        </mxCell>
        <mxCell id="50eX8-EQaEEPfpNOqsvf-64" value="" style="group" vertex="1" connectable="0" parent="1">
          <mxGeometry x="804" y="314" width="30" height="30" as="geometry" />
        </mxCell>
        <mxCell id="50eX8-EQaEEPfpNOqsvf-65" value="" style="ellipse;whiteSpace=wrap;html=1;" vertex="1" parent="50eX8-EQaEEPfpNOqsvf-64">
          <mxGeometry width="30" height="30" as="geometry" />
        </mxCell>
        <mxCell id="50eX8-EQaEEPfpNOqsvf-66" value="" style="ellipse;whiteSpace=wrap;html=1;" vertex="1" parent="50eX8-EQaEEPfpNOqsvf-64">
          <mxGeometry x="3" y="3" width="24" height="24" as="geometry" />
        </mxCell>
        <mxCell id="50eX8-EQaEEPfpNOqsvf-67" value="" style="sketch=0;pointerEvents=1;shadow=0;dashed=0;html=1;strokeColor=none;labelPosition=center;verticalLabelPosition=bottom;verticalAlign=top;align=center;fillColor=#505050;shape=mxgraph.mscae.enterprise.settings" vertex="1" parent="1">
          <mxGeometry x="773" y="334" width="10" height="10" as="geometry" />
        </mxCell>
        <mxCell id="50eX8-EQaEEPfpNOqsvf-68" value="" style="sketch=0;pointerEvents=1;shadow=0;dashed=0;html=1;strokeColor=none;labelPosition=center;verticalLabelPosition=bottom;verticalAlign=top;align=center;fillColor=#505050;shape=mxgraph.mscae.enterprise.settings" vertex="1" parent="1">
          <mxGeometry x="776" y="336" width="10" height="10" as="geometry" />
        </mxCell>
        <mxCell id="50eX8-EQaEEPfpNOqsvf-70" value="" style="rhombus;whiteSpace=wrap;html=1;" vertex="1" parent="1">
          <mxGeometry x="894" y="348" width="30" height="30" as="geometry" />
        </mxCell>
        <mxCell id="50eX8-EQaEEPfpNOqsvf-71" value="" style="shape=image;html=1;verticalAlign=top;verticalLabelPosition=bottom;labelBackgroundColor=#ffffff;imageAspect=0;aspect=fixed;image=https://cdn4.iconfinder.com/data/icons/ionicons/512/icon-plus-128.png" vertex="1" parent="1">
          <mxGeometry x="900" y="353" width="18" height="18" as="geometry" />
        </mxCell>
        <mxCell id="50eX8-EQaEEPfpNOqsvf-73" value="" style="edgeStyle=none;orthogonalLoop=1;jettySize=auto;html=1;rounded=0;exitX=1;exitY=0.5;exitDx=0;exitDy=0;entryX=0;entryY=0.5;entryDx=0;entryDy=0;" edge="1" parent="1" source="50eX8-EQaEEPfpNOqsvf-53" target="50eX8-EQaEEPfpNOqsvf-57">
          <mxGeometry width="100" relative="1" as="geometry">
            <mxPoint x="640" y="380" as="sourcePoint" />
            <mxPoint x="740" y="380" as="targetPoint" />
            <Array as="points" />
          </mxGeometry>
        </mxCell>
        <mxCell id="50eX8-EQaEEPfpNOqsvf-74" value="" style="edgeStyle=none;orthogonalLoop=1;jettySize=auto;html=1;rounded=0;exitX=1;exitY=0.5;exitDx=0;exitDy=0;entryX=0;entryY=0.5;entryDx=0;entryDy=0;" edge="1" parent="1" source="50eX8-EQaEEPfpNOqsvf-63" target="50eX8-EQaEEPfpNOqsvf-70">
          <mxGeometry width="100" relative="1" as="geometry">
            <mxPoint x="820" y="370" as="sourcePoint" />
            <mxPoint x="920" y="370" as="targetPoint" />
            <Array as="points" />
          </mxGeometry>
        </mxCell>
        <mxCell id="50eX8-EQaEEPfpNOqsvf-75" value="" style="rhombus;whiteSpace=wrap;html=1;" vertex="1" parent="1">
          <mxGeometry x="804" y="261" width="30" height="30" as="geometry" />
        </mxCell>
        <mxCell id="50eX8-EQaEEPfpNOqsvf-76" value="" style="shape=mxgraph.sysml.x;strokeWidth=2;" vertex="1" parent="1">
          <mxGeometry x="815" y="270" width="7" height="10" as="geometry" />
        </mxCell>
        <mxCell id="50eX8-EQaEEPfpNOqsvf-78" value="" style="edgeStyle=none;orthogonalLoop=1;jettySize=auto;html=1;rounded=0;entryX=0.5;entryY=1;entryDx=0;entryDy=0;exitX=0.5;exitY=0;exitDx=0;exitDy=0;" edge="1" parent="1" source="50eX8-EQaEEPfpNOqsvf-65" target="50eX8-EQaEEPfpNOqsvf-75">
          <mxGeometry width="100" relative="1" as="geometry">
            <mxPoint x="770" y="310" as="sourcePoint" />
            <mxPoint x="870" y="310" as="targetPoint" />
            <Array as="points" />
          </mxGeometry>
        </mxCell>
        <mxCell id="50eX8-EQaEEPfpNOqsvf-79" value="" style="edgeStyle=none;orthogonalLoop=1;jettySize=auto;html=1;rounded=0;entryX=0.5;entryY=0;entryDx=0;entryDy=0;exitX=1;exitY=0.5;exitDx=0;exitDy=0;" edge="1" parent="1" source="dNxyNK7c78bLwvsdeMH5-24">
          <mxGeometry width="100" relative="1" as="geometry">
            <mxPoint x="260" y="170" as="sourcePoint" />
            <mxPoint x="586" y="260.0000000000001" as="targetPoint" />
            <Array as="points">
              <mxPoint x="586" y="180" />
            </Array>
          </mxGeometry>
        </mxCell>
        <mxCell id="50eX8-EQaEEPfpNOqsvf-80" value="" style="edgeStyle=none;orthogonalLoop=1;jettySize=auto;html=1;rounded=0;exitX=1;exitY=0.5;exitDx=0;exitDy=0;entryX=0;entryY=0.5;entryDx=0;entryDy=0;" edge="1" parent="1" source="50eX8-EQaEEPfpNOqsvf-38" target="50eX8-EQaEEPfpNOqsvf-75">
          <mxGeometry width="100" relative="1" as="geometry">
            <mxPoint x="660" y="280" as="sourcePoint" />
            <mxPoint x="760" y="280" as="targetPoint" />
            <Array as="points" />
          </mxGeometry>
        </mxCell>
        <mxCell id="50eX8-EQaEEPfpNOqsvf-81" value="Update order status" style="rounded=1;whiteSpace=wrap;html=1;fontSize=9;" vertex="1" parent="1">
          <mxGeometry x="974" y="142" width="72" height="60" as="geometry" />
        </mxCell>
        <mxCell id="50eX8-EQaEEPfpNOqsvf-82" value="" style="sketch=0;pointerEvents=1;shadow=0;dashed=0;html=1;strokeColor=none;labelPosition=center;verticalLabelPosition=bottom;verticalAlign=top;align=center;fillColor=#505050;shape=mxgraph.mscae.enterprise.settings" vertex="1" parent="1">
          <mxGeometry x="977" y="143" width="10" height="10" as="geometry" />
        </mxCell>
        <mxCell id="50eX8-EQaEEPfpNOqsvf-83" value="" style="sketch=0;pointerEvents=1;shadow=0;dashed=0;html=1;strokeColor=none;labelPosition=center;verticalLabelPosition=bottom;verticalAlign=top;align=center;fillColor=#505050;shape=mxgraph.mscae.enterprise.settings" vertex="1" parent="1">
          <mxGeometry x="980" y="145" width="10" height="10" as="geometry" />
        </mxCell>
        <mxCell id="50eX8-EQaEEPfpNOqsvf-84" value="" style="edgeStyle=none;orthogonalLoop=1;jettySize=auto;html=1;rounded=0;exitX=0.5;exitY=0;exitDx=0;exitDy=0;entryX=0;entryY=0.5;entryDx=0;entryDy=0;" edge="1" parent="1" source="50eX8-EQaEEPfpNOqsvf-70" target="50eX8-EQaEEPfpNOqsvf-81">
          <mxGeometry width="100" relative="1" as="geometry">
            <mxPoint x="860" y="290" as="sourcePoint" />
            <mxPoint x="960" y="290" as="targetPoint" />
            <Array as="points">
              <mxPoint x="910" y="172" />
            </Array>
          </mxGeometry>
        </mxCell>
        <mxCell id="50eX8-EQaEEPfpNOqsvf-86" value="End" style="text;html=1;align=center;verticalAlign=middle;resizable=0;points=[];autosize=1;strokeColor=none;fillColor=none;fontSize=8;" vertex="1" parent="1">
          <mxGeometry x="1083" y="180" width="40" height="20" as="geometry" />
        </mxCell>
        <mxCell id="50eX8-EQaEEPfpNOqsvf-87" value="" style="edgeStyle=none;orthogonalLoop=1;jettySize=auto;html=1;rounded=0;exitX=1;exitY=0.5;exitDx=0;exitDy=0;entryX=0;entryY=0.5;entryDx=0;entryDy=0;" edge="1" parent="1" source="50eX8-EQaEEPfpNOqsvf-81" target="50eX8-EQaEEPfpNOqsvf-85">
          <mxGeometry width="100" relative="1" as="geometry">
            <mxPoint x="1013" y="170" as="sourcePoint" />
            <mxPoint x="1113" y="170" as="targetPoint" />
            <Array as="points" />
          </mxGeometry>
        </mxCell>
        <mxCell id="50eX8-EQaEEPfpNOqsvf-90" value="" style="edgeStyle=none;orthogonalLoop=1;jettySize=auto;html=1;rounded=0;dashed=1;endArrow=none;endFill=0;startArrow=classic;startFill=1;entryX=-0.564;entryY=1.445;entryDx=0;entryDy=0;entryPerimeter=0;" edge="1" parent="1" target="50eX8-EQaEEPfpNOqsvf-83">
          <mxGeometry width="100" relative="1" as="geometry">
            <mxPoint x="870" y="160" as="sourcePoint" />
            <mxPoint x="950" y="160" as="targetPoint" />
            <Array as="points" />
          </mxGeometry>
        </mxCell>
        <mxCell id="50eX8-EQaEEPfpNOqsvf-106" value="" style="shape=actor;whiteSpace=wrap;html=1;strokeWidth=2;" vertex="1" parent="1">
          <mxGeometry x="706" y="534" width="10" height="10" as="geometry" />
        </mxCell>
        <mxCell id="50eX8-EQaEEPfpNOqsvf-108" value="" style="edgeStyle=none;orthogonalLoop=1;jettySize=auto;html=1;rounded=0;entryX=0.5;entryY=1;entryDx=0;entryDy=0;exitX=1;exitY=0.5;exitDx=0;exitDy=0;" edge="1" parent="1" source="50eX8-EQaEEPfpNOqsvf-94" target="50eX8-EQaEEPfpNOqsvf-53">
          <mxGeometry width="100" relative="1" as="geometry">
            <mxPoint x="580" y="550" as="sourcePoint" />
            <mxPoint x="680" y="550" as="targetPoint" />
            <Array as="points">
              <mxPoint x="670" y="550" />
            </Array>
          </mxGeometry>
        </mxCell>
        <mxCell id="50eX8-EQaEEPfpNOqsvf-109" value="" style="edgeStyle=none;orthogonalLoop=1;jettySize=auto;html=1;rounded=0;exitX=0.5;exitY=1;exitDx=0;exitDy=0;entryX=0.5;entryY=0;entryDx=0;entryDy=0;" edge="1" parent="1" source="50eX8-EQaEEPfpNOqsvf-57" target="50eX8-EQaEEPfpNOqsvf-97">
          <mxGeometry width="100" relative="1" as="geometry">
            <mxPoint x="660" y="410" as="sourcePoint" />
            <mxPoint x="760" y="410" as="targetPoint" />
            <Array as="points" />
          </mxGeometry>
        </mxCell>
        <mxCell id="50eX8-EQaEEPfpNOqsvf-110" value="" style="edgeStyle=none;orthogonalLoop=1;jettySize=auto;html=1;rounded=0;entryX=0.5;entryY=1;entryDx=0;entryDy=0;" edge="1" parent="1" target="50eX8-EQaEEPfpNOqsvf-70">
          <mxGeometry width="100" relative="1" as="geometry">
            <mxPoint x="763" y="550" as="sourcePoint" />
            <mxPoint x="912" y="378" as="targetPoint" />
            <Array as="points">
              <mxPoint x="910" y="550" />
            </Array>
          </mxGeometry>
        </mxCell>
        <mxCell id="50eX8-EQaEEPfpNOqsvf-111" value="" style="edgeStyle=none;orthogonalLoop=1;jettySize=auto;html=1;rounded=0;exitX=0.5;exitY=0;exitDx=0;exitDy=0;entryX=0.5;entryY=1;entryDx=0;entryDy=0;" edge="1" parent="1" source="50eX8-EQaEEPfpNOqsvf-100" target="50eX8-EQaEEPfpNOqsvf-81">
          <mxGeometry width="100" relative="1" as="geometry">
            <mxPoint x="960" y="370" as="sourcePoint" />
            <mxPoint x="1060" y="370" as="targetPoint" />
            <Array as="points" />
          </mxGeometry>
        </mxCell>
        <mxCell id="50eX8-EQaEEPfpNOqsvf-112" value="" style="edgeStyle=none;orthogonalLoop=1;jettySize=auto;html=1;rounded=0;exitX=1;exitY=0.5;exitDx=0;exitDy=0;entryX=0.25;entryY=0;entryDx=0;entryDy=0;" edge="1" parent="1" source="50eX8-EQaEEPfpNOqsvf-75" target="50eX8-EQaEEPfpNOqsvf-100">
          <mxGeometry width="100" relative="1" as="geometry">
            <mxPoint x="880" y="310" as="sourcePoint" />
            <mxPoint x="980" y="310" as="targetPoint" />
            <Array as="points">
              <mxPoint x="990" y="276" />
            </Array>
          </mxGeometry>
        </mxCell>
      </root>
    </mxGraphModel>
  </diagram>
</mxfile>
